cl__1 = 1e+22;
Point(1) = {0.05679999999999992, 0.007725996862105913, 0.001034999999999994, cl__1};
Point(2) = {0.05499999999999992, 0.007725996862105913, 0.001034999999999993, cl__1};
Point(3) = {0.05499999999999992, 0.007725996862105913, 0.0009999999999999929, cl__1};
Point(4) = {0.05679999999999992, 0.007725996862105913, 0.0009999999999999937, cl__1};
Point(5) = {0.04239999999999992, 0.007725996862105906, 0.001034999999999986, cl__1};
Point(6) = {0.04059999999999991, 0.007725996862105906, 0.001034999999999985, cl__1};
Point(7) = {0.04059999999999991, 0.007725996862105906, 0.0009999999999999851, cl__1};
Point(8) = {0.04239999999999992, 0.007725996862105906, 0.0009999999999999859, cl__1};
Point(9) = {0.02799999999999992, 0.007725996862105899, 0.001034999999999978, cl__1};
Point(10) = {0.02619999999999991, 0.007725996862105899, 0.001034999999999977, cl__1};
Point(11) = {0.02619999999999991, 0.007725996862105899, 0.0009999999999999773, cl__1};
Point(12) = {0.02799999999999992, 0.007725996862105899, 0.0009999999999999783, cl__1};
Point(13) = {0.01359999999999992, 0.007725996862105892, 0.00103499999999997, cl__1};
Point(14) = {0.01179999999999992, 0.007725996862105892, 0.00103499999999997, cl__1};
Point(15) = {0.01179999999999992, 0.007725996862105892, 0.0009999999999999694, cl__1};
Point(16) = {0.01359999999999992, 0.007725996862105892, 0.0009999999999999705, cl__1};
Point(17) = {0.00639999999999992, 0.007725996862105892, 0.001034999999999967, cl__1};
Point(18) = {0.004599999999999917, 0.007725996862105892, 0.001034999999999966, cl__1};
Point(19) = {0.004599999999999917, 0.007725996862105892, 0.0009999999999999655, cl__1};
Point(20) = {0.00639999999999992, 0.007725996862105892, 0.0009999999999999666, cl__1};
Point(21) = {0.02079999999999992, 0.007725996862105899, 0.001034999999999974, cl__1};
Point(22) = {0.01899999999999992, 0.007725996862105899, 0.001034999999999973, cl__1};
Point(23) = {0.01899999999999992, 0.007725996862105899, 0.0009999999999999733, cl__1};
Point(24) = {0.02079999999999992, 0.007725996862105899, 0.0009999999999999744, cl__1};
Point(25) = {0.03519999999999992, 0.007725996862105899, 0.001034999999999982, cl__1};
Point(26) = {0.03339999999999992, 0.007725996862105899, 0.001034999999999981, cl__1};
Point(27) = {0.03339999999999992, 0.007725996862105899, 0.0009999999999999812, cl__1};
Point(28) = {0.03519999999999992, 0.007725996862105899, 0.000999999999999982, cl__1};
Point(29) = {0.04959999999999992, 0.007725996862105906, 0.00103499999999999, cl__1};
Point(30) = {0.04779999999999992, 0.007725996862105906, 0.001034999999999989, cl__1};
Point(31) = {0.04779999999999992, 0.007725996862105906, 0.000999999999999989, cl__1};
Point(32) = {0.04959999999999992, 0.007725996862105906, 0.0009999999999999898, cl__1};
Point(33) = {0.06399999999999992, 0.007725996862105913, 0.001034999999999998, cl__1};
Point(34) = {0.06219999999999991, 0.007725996862105913, 0.001034999999999997, cl__1};
Point(35) = {0.06219999999999991, 0.007725996862105913, 0.0009999999999999968, cl__1};
Point(36) = {0.06399999999999992, 0.007725996862105913, 0.0009999999999999976, cl__1};
Point(37) = {0.03519999999999986, 0.1603259968621055, 0.000999999999999982, cl__1};
Point(38) = {0.03519999999999986, 0.1603259968621055, 0.001034999999999982, cl__1};
Point(39) = {0.06759999999999976, 0.1603259968621055, 0.001035, cl__1};
Point(40) = {0.06759999999999976, 0.1603259968621055, 0.0009999999999999996, cl__1};
Point(41) = {0.03339999999999983, 0.1603259968621055, 0.0009999999999999812, cl__1};
Point(42) = {0.03339999999999983, 0.1603259968621055, 0.001034999999999981, cl__1};
Point(43) = {0.000999999999999765, 0.1603259968621055, 0.0009999999999999636, cl__1};
Point(44) = {0.000999999999999765, 0.1603259968621055, 0.001034999999999964, cl__1};
Point(45) = {0.000999999999999765, 0.1585259968621055, 0.0009999999999999636, cl__1};
Point(46) = {0.000999999999999765, 0.1585259968621055, 0.001034999999999964, cl__1};
Point(47) = {0.06759999999999977, 0.1585259968621055, 0.0009999999999999996, cl__1};
Point(48) = {0.06759999999999977, 0.1585259968621055, 0.001035, cl__1};
Point(49) = {0.06399999999999977, 0.1585259968621055, 0.0009999999999999976, cl__1};
Point(50) = {0.06399999999999977, 0.1585259968621055, 0.001034999999999998, cl__1};
Point(51) = {0.06219999999999977, 0.1585259968621055, 0.0009999999999999968, cl__1};
Point(52) = {0.06219999999999977, 0.1585259968621055, 0.001034999999999997, cl__1};
Point(53) = {0.05679999999999977, 0.1585259968621055, 0.0009999999999999937, cl__1};
Point(54) = {0.05679999999999977, 0.1585259968621055, 0.001034999999999994, cl__1};
Point(55) = {0.05499999999999976, 0.1585259968621055, 0.0009999999999999929, cl__1};
Point(56) = {0.05499999999999976, 0.1585259968621055, 0.001034999999999993, cl__1};
Point(57) = {0.04959999999999976, 0.1585259968621055, 0.0009999999999999898, cl__1};
Point(58) = {0.04959999999999976, 0.1585259968621055, 0.00103499999999999, cl__1};
Point(59) = {0.04779999999999976, 0.1585259968621055, 0.000999999999999989, cl__1};
Point(60) = {0.04779999999999976, 0.1585259968621055, 0.001034999999999989, cl__1};
Point(61) = {0.04239999999999976, 0.1585259968621055, 0.0009999999999999859, cl__1};
Point(62) = {0.04239999999999976, 0.1585259968621055, 0.001034999999999986, cl__1};
Point(63) = {0.04059999999999976, 0.1585259968621055, 0.0009999999999999851, cl__1};
Point(64) = {0.04059999999999976, 0.1585259968621055, 0.001034999999999985, cl__1};
Point(65) = {0.03519999999999977, 0.1585259968621055, 0.000999999999999982, cl__1};
Point(66) = {0.03519999999999976, 0.1585259968621055, 0.001034999999999982, cl__1};
Point(67) = {0.03339999999999979, 0.1585259968621055, 0.0009999999999999812, cl__1};
Point(68) = {0.03339999999999979, 0.1585259968621055, 0.001034999999999981, cl__1};
Point(69) = {0.02799999999999976, 0.1585259968621055, 0.0009999999999999783, cl__1};
Point(70) = {0.02799999999999978, 0.1585259968621055, 0.001034999999999978, cl__1};
Point(71) = {0.02619999999999979, 0.1585259968621055, 0.0009999999999999773, cl__1};
Point(72) = {0.02619999999999979, 0.1585259968621055, 0.001034999999999977, cl__1};
Point(73) = {0.02079999999999976, 0.1585259968621055, 0.0009999999999999744, cl__1};
Point(74) = {0.02079999999999976, 0.1585259968621055, 0.001034999999999974, cl__1};
Point(75) = {0.01899999999999979, 0.1585259968621055, 0.0009999999999999733, cl__1};
Point(76) = {0.01899999999999979, 0.1585259968621055, 0.001034999999999973, cl__1};
Point(77) = {0.01359999999999976, 0.1585259968621055, 0.0009999999999999705, cl__1};
Point(78) = {0.01359999999999976, 0.1585259968621055, 0.00103499999999997, cl__1};
Point(79) = {0.01179999999999976, 0.1585259968621055, 0.0009999999999999694, cl__1};
Point(80) = {0.01179999999999976, 0.1585259968621055, 0.00103499999999997, cl__1};
Point(81) = {0.006399999999999764, 0.1585259968621055, 0.0009999999999999666, cl__1};
Point(82) = {0.006399999999999764, 0.1585259968621055, 0.001034999999999967, cl__1};
Point(83) = {0.004599999999999761, 0.1585259968621055, 0.0009999999999999655, cl__1};
Point(84) = {0.004599999999999761, 0.1585259968621055, 0.001034999999999966, cl__1};
Point(85) = {0.03339999999999982, 0.1635859968621055, 0.0009999999999999812, cl__1};
Point(86) = {0.03339999999999982, 0.1635859968621055, 0.001034999999999981, cl__1};
Point(87) = {0.03519999999999984, 0.1635859968621055, 0.000999999999999982, cl__1};
Point(88) = {0.03519999999999984, 0.1635859968621055, 0.001034999999999982, cl__1};
Point(89) = {0.009999999999998489, 0.156725996862105, 0.001, cl__1};
Point(90) = {0.008199999999999895, 0.156725996862105, 0.001, cl__1};
Point(91) = {0.008199999999999895, 0.156725996862105, 0.001035, cl__1};
Point(92) = {0.009999999999998489, 0.156725996862105, 0.001035, cl__1};
Point(93) = {0.02439999999999849, 0.156725996862106, 0.001, cl__1};
Point(94) = {0.02259999999999989, 0.156725996862106, 0.001, cl__1};
Point(95) = {0.02259999999999989, 0.156725996862106, 0.001035, cl__1};
Point(96) = {0.02439999999999849, 0.156725996862106, 0.001035, cl__1};
Point(97) = {0.03879999999999849, 0.156725996862106, 0.001, cl__1};
Point(98) = {0.03699999999999989, 0.156725996862106, 0.001, cl__1};
Point(99) = {0.03699999999999989, 0.156725996862106, 0.001035, cl__1};
Point(100) = {0.03879999999999849, 0.156725996862106, 0.001035, cl__1};
Point(101) = {0.05319999999999849, 0.156725996862106, 0.001, cl__1};
Point(102) = {0.05139999999999989, 0.156725996862106, 0.001, cl__1};
Point(103) = {0.05139999999999989, 0.156725996862106, 0.001035, cl__1};
Point(104) = {0.05319999999999849, 0.156725996862106, 0.001035, cl__1};
Point(105) = {0.06759999999999848, 0.156725996862106, 0.001, cl__1};
Point(106) = {0.06579999999999993, 0.156725996862106, 0.001, cl__1};
Point(107) = {0.06579999999999993, 0.156725996862106, 0.001035, cl__1};
Point(108) = {0.06759999999999848, 0.156725996862106, 0.001035, cl__1};
Point(109) = {0.06039999999999848, 0.156725996862106, 0.001, cl__1};
Point(110) = {0.05859999999999992, 0.156725996862106, 0.001, cl__1};
Point(111) = {0.05859999999999992, 0.156725996862106, 0.001035, cl__1};
Point(112) = {0.06039999999999848, 0.156725996862106, 0.001035, cl__1};
Point(113) = {0.04599999999999849, 0.156725996862106, 0.001, cl__1};
Point(114) = {0.04419999999999989, 0.156725996862106, 0.001, cl__1};
Point(115) = {0.04419999999999989, 0.156725996862106, 0.001035, cl__1};
Point(116) = {0.04599999999999849, 0.156725996862106, 0.001035, cl__1};
Point(117) = {0.03159999999999849, 0.156725996862106, 0.001, cl__1};
Point(118) = {0.0297999999999999, 0.156725996862106, 0.001, cl__1};
Point(119) = {0.0297999999999999, 0.156725996862106, 0.001035, cl__1};
Point(120) = {0.03159999999999849, 0.156725996862106, 0.001035, cl__1};
Point(121) = {0.01719999999999849, 0.156725996862106, 0.001, cl__1};
Point(122) = {0.01539999999999989, 0.156725996862106, 0.001, cl__1};
Point(123) = {0.01539999999999989, 0.156725996862106, 0.001035, cl__1};
Point(124) = {0.01719999999999849, 0.156725996862106, 0.001035, cl__1};
Point(125) = {0.002799999999998484, 0.156725996862105, 0.001, cl__1};
Point(126) = {0.0009999999999999037, 0.156725996862105, 0.001, cl__1};
Point(127) = {0.0009999999999999037, 0.156725996862105, 0.001035, cl__1};
Point(128) = {0.002799999999998484, 0.156725996862105, 0.001035, cl__1};
Point(129) = {0.02979999999999999, 0.00412599686210602, 0.001, cl__1};
Point(130) = {0.02979999999999999, 0.00412599686210602, 0.001035, cl__1};
Point(131) = {0.001000000000000001, 0.00412599686210602, 0.001035, cl__1};
Point(132) = {0.001000000000000001, 0.00412599686210602, 0.001, cl__1};
Point(133) = {0.03159999999999999, 0.00412599686210602, 0.001, cl__1};
Point(134) = {0.03159999999999999, 0.00412599686210602, 0.001035, cl__1};
Point(135) = {0.06759999999999999, 0.00412599686210602, 0.001, cl__1};
Point(136) = {0.06759999999999999, 0.00412599686210602, 0.001035, cl__1};
Point(137) = {0.002799999999999997, 0.00592599686210603, 0.001, cl__1};
Point(138) = {0.002799999999999997, 0.00592599686210603, 0.001035, cl__1};
Point(139) = {0.008199999999999992, 0.00592599686210604, 0.001, cl__1};
Point(140) = {0.008199999999999992, 0.00592599686210604, 0.001035, cl__1};
Point(141) = {0.009999999999999988, 0.00592599686210603, 0.001, cl__1};
Point(142) = {0.009999999999999988, 0.00592599686210603, 0.001035, cl__1};
Point(143) = {0.01539999999999999, 0.00592599686210604, 0.001, cl__1};
Point(144) = {0.01539999999999999, 0.00592599686210604, 0.001035, cl__1};
Point(145) = {0.01719999999999999, 0.00592599686210603, 0.001, cl__1};
Point(146) = {0.01719999999999999, 0.00592599686210603, 0.001035, cl__1};
Point(147) = {0.0226, 0.00592599686210604, 0.001, cl__1};
Point(148) = {0.0226, 0.00592599686210604, 0.001035, cl__1};
Point(149) = {0.02439999999999999, 0.00592599686210603, 0.001, cl__1};
Point(150) = {0.02439999999999999, 0.00592599686210603, 0.001035, cl__1};
Point(151) = {0.02979999999999999, 0.00592599686210604, 0.001, cl__1};
Point(152) = {0.02979999999999999, 0.00592599686210604, 0.001035, cl__1};
Point(153) = {0.03159999999999999, 0.00592599686210603, 0.001, cl__1};
Point(154) = {0.03159999999999999, 0.00592599686210603, 0.001035, cl__1};
Point(155) = {0.03699999999999999, 0.00592599686210604, 0.001, cl__1};
Point(156) = {0.03699999999999999, 0.00592599686210604, 0.001035, cl__1};
Point(157) = {0.03879999999999999, 0.00592599686210603, 0.001, cl__1};
Point(158) = {0.03879999999999999, 0.00592599686210603, 0.001035, cl__1};
Point(159) = {0.04419999999999999, 0.00592599686210604, 0.001, cl__1};
Point(160) = {0.04419999999999999, 0.00592599686210604, 0.001035, cl__1};
Point(161) = {0.04599999999999999, 0.00592599686210603, 0.001, cl__1};
Point(162) = {0.04599999999999999, 0.00592599686210603, 0.001035, cl__1};
Point(163) = {0.05139999999999999, 0.00592599686210604, 0.001, cl__1};
Point(164) = {0.05139999999999999, 0.00592599686210604, 0.001035, cl__1};
Point(165) = {0.05319999999999999, 0.00592599686210603, 0.001, cl__1};
Point(166) = {0.05319999999999999, 0.00592599686210603, 0.001035, cl__1};
Point(167) = {0.05860000000000004, 0.00592599686210604, 0.001, cl__1};
Point(168) = {0.05860000000000004, 0.00592599686210604, 0.001035, cl__1};
Point(169) = {0.06040000000000004, 0.00592599686210603, 0.001, cl__1};
Point(170) = {0.06040000000000004, 0.00592599686210603, 0.001035, cl__1};
Point(171) = {0.06580000000000004, 0.00592599686210604, 0.001, cl__1};
Point(172) = {0.06580000000000004, 0.00592599686210604, 0.001035, cl__1};
Point(173) = {0.03159999999999999, 0.001, 0.001, cl__1};
Point(174) = {0.03159999999999999, 0.001, 0.001035, cl__1};
Point(175) = {0.02979999999999999, 0.001, 0.001, cl__1};
Point(176) = {0.02979999999999999, 0.001, 0.001035, cl__1};
Line(1) = {1, 2};
Line(2) = {2, 3};
Line(3) = {3, 4};
Line(4) = {4, 1};
Line(5) = {5, 6};
Line(6) = {6, 7};
Line(7) = {7, 8};
Line(8) = {8, 5};
Line(9) = {9, 10};
Line(10) = {10, 11};
Line(11) = {11, 12};
Line(12) = {12, 9};
Line(13) = {13, 14};
Line(14) = {14, 15};
Line(15) = {15, 16};
Line(16) = {16, 13};
Line(17) = {17, 18};
Line(18) = {18, 19};
Line(19) = {19, 20};
Line(20) = {20, 17};
Line(21) = {21, 22};
Line(22) = {22, 23};
Line(23) = {23, 24};
Line(24) = {24, 21};
Line(25) = {25, 26};
Line(26) = {26, 27};
Line(27) = {27, 28};
Line(28) = {28, 25};
Line(29) = {29, 30};
Line(30) = {30, 31};
Line(31) = {31, 32};
Line(32) = {32, 29};
Line(33) = {33, 34};
Line(34) = {34, 35};
Line(35) = {35, 36};
Line(36) = {36, 33};
Line(37) = {37, 38};
Line(38) = {39, 38};
Line(39) = {40, 39};
Line(40) = {40, 37};
Line(41) = {41, 42};
Line(42) = {41, 43};
Line(43) = {43, 44};
Line(44) = {42, 44};
Line(45) = {43, 45};
Line(46) = {45, 46};
Line(47) = {44, 46};
Line(48) = {47, 40};
Line(49) = {48, 39};
Line(50) = {47, 48};
Line(51) = {49, 47};
Line(52) = {50, 48};
Line(53) = {49, 50};
Line(54) = {36, 49};
Line(55) = {33, 50};
Line(56) = {51, 35};
Line(57) = {52, 34};
Line(58) = {51, 52};
Line(59) = {53, 51};
Line(60) = {54, 52};
Line(61) = {53, 54};
Line(62) = {4, 53};
Line(63) = {1, 54};
Line(64) = {55, 3};
Line(65) = {56, 2};
Line(66) = {55, 56};
Line(67) = {57, 55};
Line(68) = {58, 56};
Line(69) = {57, 58};
Line(70) = {32, 57};
Line(71) = {29, 58};
Line(72) = {59, 31};
Line(73) = {60, 30};
Line(74) = {59, 60};
Line(75) = {61, 59};
Line(76) = {62, 60};
Line(77) = {61, 62};
Line(78) = {8, 61};
Line(79) = {5, 62};
Line(80) = {63, 7};
Line(81) = {64, 6};
Line(82) = {63, 64};
Line(83) = {65, 63};
Line(84) = {66, 64};
Line(85) = {65, 66};
Line(86) = {28, 65};
Line(87) = {25, 66};
Line(88) = {67, 27};
Line(89) = {68, 26};
Line(90) = {67, 68};
Line(91) = {69, 67};
Line(92) = {70, 68};
Line(93) = {69, 70};
Line(94) = {12, 69};
Line(95) = {9, 70};
Line(96) = {71, 11};
Line(97) = {72, 10};
Line(98) = {71, 72};
Line(99) = {73, 71};
Line(100) = {74, 72};
Line(101) = {73, 74};
Line(102) = {24, 73};
Line(103) = {21, 74};
Line(104) = {75, 23};
Line(105) = {76, 22};
Line(106) = {75, 76};
Line(107) = {77, 75};
Line(108) = {78, 76};
Line(109) = {77, 78};
Line(110) = {16, 77};
Line(111) = {13, 78};
Line(112) = {79, 15};
Line(113) = {80, 14};
Line(114) = {79, 80};
Line(115) = {81, 79};
Line(116) = {82, 80};
Line(117) = {81, 82};
Line(118) = {20, 81};
Line(119) = {17, 82};
Line(120) = {83, 19};
Line(121) = {84, 18};
Line(122) = {83, 84};
Line(123) = {45, 83};
Line(124) = {46, 84};
Line(125) = {85, 41};
Line(126) = {86, 42};
Line(127) = {85, 86};
Line(128) = {87, 85};
Line(129) = {88, 86};
Line(130) = {87, 88};
Line(131) = {37, 87};
Line(132) = {38, 88};
Line(133) = {89, 90};
Line(134) = {90, 91};
Line(135) = {91, 92};
Line(136) = {92, 89};
Line(137) = {93, 94};
Line(138) = {94, 95};
Line(139) = {95, 96};
Line(140) = {96, 93};
Line(141) = {97, 98};
Line(142) = {98, 99};
Line(143) = {99, 100};
Line(144) = {100, 97};
Line(145) = {101, 102};
Line(146) = {102, 103};
Line(147) = {103, 104};
Line(148) = {104, 101};
Line(149) = {105, 106};
Line(150) = {106, 107};
Line(151) = {107, 108};
Line(152) = {108, 105};
Line(153) = {109, 110};
Line(154) = {110, 111};
Line(155) = {111, 112};
Line(156) = {112, 109};
Line(157) = {113, 114};
Line(158) = {114, 115};
Line(159) = {115, 116};
Line(160) = {116, 113};
Line(161) = {117, 118};
Line(162) = {118, 119};
Line(163) = {119, 120};
Line(164) = {120, 117};
Line(165) = {121, 122};
Line(166) = {122, 123};
Line(167) = {123, 124};
Line(168) = {124, 121};
Line(169) = {125, 126};
Line(170) = {126, 127};
Line(171) = {127, 128};
Line(172) = {128, 125};
Line(173) = {129, 130};
Line(174) = {131, 130};
Line(175) = {132, 131};
Line(176) = {132, 129};
Line(177) = {133, 134};
Line(178) = {133, 135};
Line(179) = {135, 136};
Line(180) = {134, 136};
Line(181) = {126, 132};
Line(182) = {127, 131};
Line(183) = {137, 125};
Line(184) = {138, 128};
Line(185) = {137, 138};
Line(186) = {139, 137};
Line(187) = {140, 138};
Line(188) = {139, 140};
Line(189) = {90, 139};
Line(190) = {91, 140};
Line(191) = {141, 89};
Line(192) = {142, 92};
Line(193) = {141, 142};
Line(194) = {143, 141};
Line(195) = {144, 142};
Line(196) = {143, 144};
Line(197) = {122, 143};
Line(198) = {123, 144};
Line(199) = {145, 121};
Line(200) = {146, 124};
Line(201) = {145, 146};
Line(202) = {147, 145};
Line(203) = {148, 146};
Line(204) = {147, 148};
Line(205) = {94, 147};
Line(206) = {95, 148};
Line(207) = {149, 93};
Line(208) = {150, 96};
Line(209) = {149, 150};
Line(210) = {151, 149};
Line(211) = {152, 150};
Line(212) = {151, 152};
Line(213) = {118, 151};
Line(214) = {119, 152};
Line(215) = {153, 117};
Line(216) = {154, 120};
Line(217) = {153, 154};
Line(218) = {155, 153};
Line(219) = {156, 154};
Line(220) = {155, 156};
Line(221) = {98, 155};
Line(222) = {99, 156};
Line(223) = {157, 97};
Line(224) = {158, 100};
Line(225) = {157, 158};
Line(226) = {159, 157};
Line(227) = {160, 158};
Line(228) = {159, 160};
Line(229) = {114, 159};
Line(230) = {115, 160};
Line(231) = {161, 113};
Line(232) = {162, 116};
Line(233) = {161, 162};
Line(234) = {163, 161};
Line(235) = {164, 162};
Line(236) = {163, 164};
Line(237) = {102, 163};
Line(238) = {103, 164};
Line(239) = {165, 101};
Line(240) = {166, 104};
Line(241) = {165, 166};
Line(242) = {167, 165};
Line(243) = {168, 166};
Line(244) = {167, 168};
Line(245) = {110, 167};
Line(246) = {111, 168};
Line(247) = {169, 109};
Line(248) = {170, 112};
Line(249) = {169, 170};
Line(250) = {171, 169};
Line(251) = {172, 170};
Line(252) = {171, 172};
Line(253) = {106, 171};
Line(254) = {107, 172};
Line(255) = {135, 105};
Line(256) = {136, 108};
Line(257) = {173, 133};
Line(258) = {174, 134};
Line(259) = {173, 174};
Line(260) = {175, 173};
Line(261) = {176, 174};
Line(262) = {175, 176};
Line(263) = {129, 175};
Line(264) = {130, 176};
Line Loop(1) = {1, 2, 3, 4};
Plane Surface(1) = {1};
Line Loop(2) = {5, 6, 7, 8};
Plane Surface(2) = {2};
Line Loop(3) = {9, 10, 11, 12};
Plane Surface(3) = {3};
Line Loop(4) = {13, 14, 15, 16};
Plane Surface(4) = {4};
Line Loop(5) = {17, 18, 19, 20};
Plane Surface(5) = {5};
Line Loop(6) = {21, 22, 23, 24};
Plane Surface(6) = {6};
Line Loop(7) = {25, 26, 27, 28};
Plane Surface(7) = {7};
Line Loop(8) = {29, 30, 31, 32};
Plane Surface(8) = {8};
Line Loop(9) = {33, 34, 35, 36};
Plane Surface(9) = {9};
Line Loop(10) = {37, -38, -39, 40};
Plane Surface(10) = {10};
Line Loop(11) = {41, 44, -43, -42};
Plane Surface(11) = {11};
Line Loop(12) = {45, 46, -47, -43};
Plane Surface(12) = {12};
Line Loop(13) = {48, 39, -49, -50};
Plane Surface(13) = {13};
Line Loop(14) = {51, 50, -52, -53};
Plane Surface(14) = {14};
Line Loop(15) = {54, 53, -55, -36};
Plane Surface(15) = {15};
Line Loop(16) = {56, -34, -57, -58};
Plane Surface(16) = {16};
Line Loop(17) = {59, 58, -60, -61};
Plane Surface(17) = {17};
Line Loop(18) = {62, 61, -63, -4};
Plane Surface(18) = {18};
Line Loop(19) = {64, -2, -65, -66};
Plane Surface(19) = {19};
Line Loop(20) = {67, 66, -68, -69};
Plane Surface(20) = {20};
Line Loop(21) = {70, 69, -71, -32};
Plane Surface(21) = {21};
Line Loop(22) = {72, -30, -73, -74};
Plane Surface(22) = {22};
Line Loop(23) = {75, 74, -76, -77};
Plane Surface(23) = {23};
Line Loop(24) = {78, 77, -79, -8};
Plane Surface(24) = {24};
Line Loop(25) = {80, -6, -81, -82};
Plane Surface(25) = {25};
Line Loop(26) = {83, 82, -84, -85};
Plane Surface(26) = {26};
Line Loop(27) = {86, 85, -87, -28};
Plane Surface(27) = {27};
Line Loop(28) = {88, -26, -89, -90};
Plane Surface(28) = {28};
Line Loop(29) = {91, 90, -92, -93};
Plane Surface(29) = {29};
Line Loop(30) = {94, 93, -95, -12};
Plane Surface(30) = {30};
Line Loop(31) = {96, -10, -97, -98};
Plane Surface(31) = {31};
Line Loop(32) = {99, 98, -100, -101};
Plane Surface(32) = {32};
Line Loop(33) = {102, 101, -103, -24};
Plane Surface(33) = {33};
Line Loop(34) = {104, -22, -105, -106};
Plane Surface(34) = {34};
Line Loop(35) = {107, 106, -108, -109};
Plane Surface(35) = {35};
Line Loop(36) = {110, 109, -111, -16};
Plane Surface(36) = {36};
Line Loop(37) = {112, -14, -113, -114};
Plane Surface(37) = {37};
Line Loop(38) = {115, 114, -116, -117};
Plane Surface(38) = {38};
Line Loop(39) = {118, 117, -119, -20};
Plane Surface(39) = {39};
Line Loop(40) = {120, -18, -121, -122};
Plane Surface(40) = {40};
Line Loop(41) = {123, 122, -124, -46};
Plane Surface(41) = {41};
Line Loop(42) = {125, 41, -126, -127};
Plane Surface(42) = {42};
Line Loop(43) = {128, 127, -129, -130};
Plane Surface(43) = {43};
Line Loop(44) = {131, 130, -132, -37};
Plane Surface(44) = {44};
Line Loop(45) = {132, 129, 126, 44, 47, 124, 121, -17, 119, 116, 113, -13, 111, 108, 105, -21, 103, 100, 97, -9, 95, 92, 89, -25, 87, 84, 81, -5, 79, 76, 73, -29, 71, 68, 65, -1, 63, 60, 57, -33, 55, 52, 49, 38};
Plane Surface(45) = {45};
Line Loop(46) = {125, 42, 45, 123, 120, 19, 118, 115, 112, 15, 110, 107, 104, 23, 102, 99, 96, 11, 94, 91, 88, 27, 86, 83, 80, 7, 78, 75, 72, 31, 70, 67, 64, 3, 62, 59, 56, 35, 54, 51, 48, 40, 131, 128};
Plane Surface(46) = {46};
Line Loop(47) = {133, 134, 135, 136};
Plane Surface(47) = {47};
Line Loop(48) = {137, 138, 139, 140};
Plane Surface(48) = {48};
Line Loop(49) = {141, 142, 143, 144};
Plane Surface(49) = {49};
Line Loop(50) = {145, 146, 147, 148};
Plane Surface(50) = {50};
Line Loop(51) = {149, 150, 151, 152};
Plane Surface(51) = {51};
Line Loop(52) = {153, 154, 155, 156};
Plane Surface(52) = {52};
Line Loop(53) = {157, 158, 159, 160};
Plane Surface(53) = {53};
Line Loop(54) = {161, 162, 163, 164};
Plane Surface(54) = {54};
Line Loop(55) = {165, 166, 167, 168};
Plane Surface(55) = {55};
Line Loop(56) = {169, 170, 171, 172};
Plane Surface(56) = {56};
Line Loop(57) = {173, -174, -175, 176};
Plane Surface(57) = {57};
Line Loop(58) = {177, 180, -179, -178};
Plane Surface(58) = {58};
Line Loop(59) = {181, 175, -182, -170};
Plane Surface(59) = {59};
Line Loop(60) = {183, -172, -184, -185};
Plane Surface(60) = {60};
Line Loop(61) = {186, 185, -187, -188};
Plane Surface(61) = {61};
Line Loop(62) = {189, 188, -190, -134};
Plane Surface(62) = {62};
Line Loop(63) = {191, -136, -192, -193};
Plane Surface(63) = {63};
Line Loop(64) = {194, 193, -195, -196};
Plane Surface(64) = {64};
Line Loop(65) = {197, 196, -198, -166};
Plane Surface(65) = {65};
Line Loop(66) = {199, -168, -200, -201};
Plane Surface(66) = {66};
Line Loop(67) = {202, 201, -203, -204};
Plane Surface(67) = {67};
Line Loop(68) = {205, 204, -206, -138};
Plane Surface(68) = {68};
Line Loop(69) = {207, -140, -208, -209};
Plane Surface(69) = {69};
Line Loop(70) = {210, 209, -211, -212};
Plane Surface(70) = {70};
Line Loop(71) = {213, 212, -214, -162};
Plane Surface(71) = {71};
Line Loop(72) = {215, -164, -216, -217};
Plane Surface(72) = {72};
Line Loop(73) = {218, 217, -219, -220};
Plane Surface(73) = {73};
Line Loop(74) = {221, 220, -222, -142};
Plane Surface(74) = {74};
Line Loop(75) = {223, -144, -224, -225};
Plane Surface(75) = {75};
Line Loop(76) = {226, 225, -227, -228};
Plane Surface(76) = {76};
Line Loop(77) = {229, 228, -230, -158};
Plane Surface(77) = {77};
Line Loop(78) = {231, -160, -232, -233};
Plane Surface(78) = {78};
Line Loop(79) = {234, 233, -235, -236};
Plane Surface(79) = {79};
Line Loop(80) = {237, 236, -238, -146};
Plane Surface(80) = {80};
Line Loop(81) = {239, -148, -240, -241};
Plane Surface(81) = {81};
Line Loop(82) = {242, 241, -243, -244};
Plane Surface(82) = {82};
Line Loop(83) = {245, 244, -246, -154};
Plane Surface(83) = {83};
Line Loop(84) = {247, -156, -248, -249};
Plane Surface(84) = {84};
Line Loop(85) = {250, 249, -251, -252};
Plane Surface(85) = {85};
Line Loop(86) = {253, 252, -254, -150};
Plane Surface(86) = {86};
Line Loop(87) = {255, -152, -256, -179};
Plane Surface(87) = {87};
Line Loop(88) = {257, 177, -258, -259};
Plane Surface(88) = {88};
Line Loop(89) = {260, 259, -261, -262};
Plane Surface(89) = {89};
Line Loop(90) = {263, 262, -264, -173};
Plane Surface(90) = {90};
Line Loop(91) = {264, 261, 258, 180, 256, -151, 254, 251, 248, -155, 246, 243, 240, -147, 238, 235, 232, -159, 230, 227, 224, -143, 222, 219, 216, -163, 214, 211, 208, -139, 206, 203, 200, -167, 198, 195, 192, -135, 190, 187, 184, -171, 182, 174};
Plane Surface(91) = {91};
Line Loop(92) = {263, 260, 257, 178, 255, 149, 253, 250, 247, 153, 245, 242, 239, 145, 237, 234, 231, 157, 229, 226, 223, 141, 221, 218, 215, 161, 213, 210, 207, 137, 205, 202, 199, 165, 197, 194, 191, 133, 189, 186, 183, 169, 181, 176};
Plane Surface(92) = {92};
Surface Loop(1) = {1, 2, 3, 4, 5, 6, 7, 8, 9, 10, 11, 12, 13, 14, 15, 16, 17, 18, 19, 20, 21, 22, 23, 24, 25, 26, 27, 28, 29, 30, 31, 32, 33, 34, 35, 36, 37, 38, 39, 40, 41, 42, 43, 44, 45, 46};
Volume(1) = {1};
Surface Loop(2) = {47, 48, 49, 50, 51, 52, 53, 54, 55, 56, 57, 58, 59, 60, 61, 62, 63, 64, 65, 66, 67, 68, 69, 70, 71, 72, 73, 74, 75, 76, 77, 78, 79, 80, 81, 82, 83, 84, 85, 86, 87, 88, 89, 90, 91, 92};
Volume(2) = {2};
